<svg width="341" height="63" viewBox="0 0 341 63" fill="none" xmlns="http://www.w3.org/2000/svg">
<path d="M90.4586 29.6987C90.4586 38.4572 96.2976 43.8195 103.805 43.8195C111.67 43.8195 116.377 38.7551 117.747 31.5458L125.075 34.4652C123.943 39.5297 121.501 43.5812 117.806 46.6199C114.112 49.6585 109.405 51.1481 103.745 51.1481C90.6969 51.1481 82.2363 41.9725 82.2363 29.6987C82.0576 17.7229 91.6502 8.01109 103.745 8.24941C114.649 8.24941 121.143 14.5055 123.05 22.1915L115.662 25.4684C114.47 19.4507 110.12 15.5184 103.686 15.5184C96.2976 15.5184 90.4586 21.0594 90.4586 29.6987Z" fill="black"/>
<path d="M127.878 22.3106H135.504V25.9451C136.696 23.3235 139.02 21.7148 142.297 21.7148C147.361 21.7148 150.4 25.2301 150.4 30.0562C150.4 31.3074 150.281 32.4395 149.983 33.5715H142.773C142.952 32.9161 143.012 32.2012 143.012 31.4266C143.012 29.3412 141.582 27.9113 139.437 27.9113C137.054 27.9113 135.504 29.52 135.504 32.3799V50.5522H127.878V22.3106Z" fill="black"/>
<path d="M172.964 22.3106H180.709L161.464 62.3494H153.719L161.286 46.5603L149.965 22.3106H157.949L165.218 38.3976L172.964 22.3106Z" fill="black"/>
<path d="M182.33 22.3106H189.658V26.5409C191.744 23.6214 195.259 21.7148 199.013 21.7148C206.639 21.7148 212.299 27.673 212.299 36.5506C212.299 45.4282 206.52 51.1481 198.596 51.1481C194.723 51.1481 191.446 49.5394 189.956 46.9178V62.3494H182.33V22.3106ZM197.166 44.6537C201.396 44.6537 204.673 41.4959 204.673 36.5506C204.673 31.4862 201.396 28.2688 197.166 28.2688C193.055 28.2688 189.658 31.4862 189.658 36.5506C189.658 41.5554 193.055 44.6537 197.166 44.6537Z" fill="black"/>
<path d="M218.475 41.0192V28.5667H212.636V22.3106H218.475V13.0159H226.042V22.3106H236.648V28.5667H226.042V41.0192C226.042 43.1641 227.353 44.4154 229.26 44.4154C231.226 44.4154 232.358 43.1046 232.596 40.483L239.627 41.7938C238.852 47.6923 235.039 51.1481 229.081 51.1481C222.229 51.1481 218.475 47.2157 218.475 41.0192Z" fill="black"/>
<path d="M239.421 36.4314C239.421 27.9709 245.617 21.7148 254.197 21.7148C262.776 21.7148 268.973 27.9709 268.973 36.4314C268.973 44.8324 262.717 51.1481 254.197 51.1481C245.677 51.1481 239.421 44.8324 239.421 36.4314ZM261.525 36.4314C261.525 31.7245 258.427 28.5667 254.197 28.5667C249.966 28.5667 246.868 31.7245 246.868 36.4314C246.868 41.1384 249.966 44.2962 254.197 44.2962C258.427 44.2962 261.525 41.1384 261.525 36.4314Z" fill="black"/>
<path d="M279.605 50.5522H271.979V22.3106H279.605V26.0047C281.452 23.1448 284.61 21.7148 288.185 21.7148C294.322 21.7148 298.374 25.5876 298.374 32.082V50.5522H290.747V34.1673C290.747 30.2945 288.721 27.9113 285.444 27.9113C282.048 27.9113 279.605 30.4733 279.605 34.9419V50.5522Z" fill="black"/>
<path d="M302.987 22.3106H310.613V50.5522H302.987V22.3106ZM302.749 18.0804V10.0369H310.911V18.0804H302.749Z" fill="black"/>
<path d="M339.927 22.3106L330.752 35.5973L341 50.5522H332.361L326.581 41.5554L320.861 50.5522H312.222L322.47 35.5973L313.295 22.3106H321.934L326.581 29.6987L331.288 22.3106H339.927Z" fill="black"/>
<path d="M59.7785 29.8893C59.7785 33.8144 59.0054 37.701 57.5033 41.3274C56.0012 44.9537 53.7996 48.2487 51.0241 51.0241C48.2487 53.7996 44.9537 56.0012 41.3274 57.5033C37.701 59.0054 33.8144 59.7785 29.8893 59.7785C25.9641 59.7785 22.0775 59.0054 18.4511 57.5033C14.8248 56.0012 11.5298 53.7996 8.75436 51.0241C5.97888 48.2487 3.77726 44.9537 2.27518 41.3274C0.773108 37.701 -3.43144e-07 33.8144 0 29.8892L17.1719 29.8893C17.1719 31.5593 17.5008 33.213 18.1399 34.756C18.779 36.2989 19.7158 37.7009 20.8967 38.8818C22.0776 40.0627 23.4796 40.9995 25.0225 41.6386C26.5655 42.2777 28.2192 42.6066 29.8893 42.6066C31.5593 42.6066 33.213 42.2777 34.756 41.6386C36.2989 40.9995 37.7009 40.0627 38.8818 38.8818C40.0627 37.7009 40.9995 36.2989 41.6386 34.756C42.2777 33.213 42.6066 31.5593 42.6066 29.8893H59.7785Z" fill="black"/>
<path d="M19.6415 23.9111C23.9904 27.9951 26.4734 37.5748 26.4734 37.5748C26.4734 37.5748 27.2647 24.4842 23.0575 17.9333C19.5955 12.5429 10.2478 7.68555 10.2478 7.68555L5.1239 17.9333C5.1239 17.9333 15.1721 19.7139 19.6415 23.9111Z" fill="black"/>
<path d="M40.7562 23.5212C36.5929 27.7219 34.2158 37.5753 34.2158 37.5753C34.2158 37.5753 33.4582 24.1107 37.486 17.3726C40.8003 11.8282 49.7493 6.83203 49.7493 6.83203L54.6547 17.3726C54.6547 17.3726 45.0351 19.204 40.7562 23.5212Z" fill="black"/>
</svg>
