<svg width="60" height="60" viewBox="0 0 60 60" fill="none" xmlns="http://www.w3.org/2000/svg">
<path d="M59.7785 29.8893C59.7785 33.8144 59.0054 37.701 57.5033 41.3274C56.0012 44.9537 53.7996 48.2487 51.0241 51.0241C48.2487 53.7996 44.9537 56.0012 41.3274 57.5033C37.701 59.0054 33.8144 59.7785 29.8893 59.7785C25.9641 59.7785 22.0775 59.0054 18.4511 57.5033C14.8248 56.0012 11.5298 53.7996 8.75436 51.0241C5.97888 48.2487 3.77726 44.9537 2.27518 41.3274C0.773108 37.701 -3.43144e-07 33.8144 0 29.8892L17.1719 29.8893C17.1719 31.5593 17.5008 33.213 18.1399 34.756C18.779 36.2989 19.7158 37.7009 20.8967 38.8818C22.0776 40.0627 23.4796 40.9995 25.0225 41.6386C26.5655 42.2777 28.2192 42.6066 29.8893 42.6066C31.5593 42.6066 33.213 42.2777 34.756 41.6386C36.2989 40.9995 37.7009 40.0627 38.8818 38.8818C40.0627 37.7009 40.9995 36.2989 41.6386 34.756C42.2777 33.213 42.6066 31.5593 42.6066 29.8893H59.7785Z" fill="black"/>
<path d="M19.6415 23.9111C23.9904 27.9951 26.4734 37.5748 26.4734 37.5748C26.4734 37.5748 27.2647 24.4842 23.0575 17.9333C19.5955 12.5429 10.2478 7.68555 10.2478 7.68555L5.1239 17.9333C5.1239 17.9333 15.1721 19.7139 19.6415 23.9111Z" fill="black"/>
<path d="M40.7562 23.5212C36.5929 27.7219 34.2158 37.5753 34.2158 37.5753C34.2158 37.5753 33.4582 24.1107 37.486 17.3726C40.8003 11.8282 49.7493 6.83203 49.7493 6.83203L54.6547 17.3726C54.6547 17.3726 45.0351 19.204 40.7562 23.5212Z" fill="black"/>
</svg>
